<mxfile host="app.diagrams.net" modified="2021-04-13T18:48:19.629Z" agent="5.0 (Macintosh; Intel Mac OS X 10_15_7) AppleWebKit/605.1.15 (KHTML, like Gecko) Version/14.0.3 Safari/605.1.15" etag="a5_dJqM5ThiTjYWLL3Oz" version="14.5.10" type="github">
  <diagram name="Page-1" id="e3a06f82-3646-2815-327d-82caf3d4e204">
    <mxGraphModel dx="1426" dy="2016" grid="1" gridSize="10" guides="1" tooltips="1" connect="1" arrows="1" fold="1" page="1" pageScale="1.5" pageWidth="1169" pageHeight="826" background="none" math="0" shadow="0">
      <root>
        <mxCell id="0" style=";html=1;" />
        <mxCell id="1" style=";html=1;" parent="0" />
        <mxCell id="dReOzRF-Hoq0QVS8l2vs-50" style="edgeStyle=orthogonalEdgeStyle;rounded=0;orthogonalLoop=1;jettySize=auto;html=1;entryX=0.55;entryY=0.95;entryDx=0;entryDy=0;entryPerimeter=0;fontSize=18;endArrow=none;endFill=0;strokeWidth=2;" edge="1" parent="1" source="dReOzRF-Hoq0QVS8l2vs-44" target="dReOzRF-Hoq0QVS8l2vs-32">
          <mxGeometry relative="1" as="geometry" />
        </mxCell>
        <mxCell id="dReOzRF-Hoq0QVS8l2vs-44" value="" style="rounded=0;whiteSpace=wrap;html=1;fontSize=18;fillColor=#dae8fc;strokeColor=#6c8ebf;" vertex="1" parent="1">
          <mxGeometry x="1100" y="-770" width="210" height="130" as="geometry" />
        </mxCell>
        <mxCell id="dReOzRF-Hoq0QVS8l2vs-32" value="" style="ellipse;shape=cloud;whiteSpace=wrap;html=1;fontSize=15;fillColor=#f5f5f5;strokeColor=#666666;fontColor=#333333;" vertex="1" parent="1">
          <mxGeometry x="1087.5" y="-1120" width="195" height="207" as="geometry" />
        </mxCell>
        <mxCell id="Ilc13FiyXrUuGdo4CWeQ-55" value="" style="shape=ext;double=1;rounded=0;whiteSpace=wrap;html=1;fillColor=#d5e8d4;strokeColor=#82b366;" parent="1" vertex="1">
          <mxGeometry x="50" y="-1060" width="360" height="700" as="geometry" />
        </mxCell>
        <mxCell id="Ilc13FiyXrUuGdo4CWeQ-51" value="" style="shape=ext;double=1;rounded=0;whiteSpace=wrap;html=1;fillColor=#fff2cc;strokeColor=#d6b656;" parent="1" vertex="1">
          <mxGeometry x="445" y="-950.75" width="560" height="590" as="geometry" />
        </mxCell>
        <mxCell id="dReOzRF-Hoq0QVS8l2vs-58" style="edgeStyle=orthogonalEdgeStyle;rounded=0;orthogonalLoop=1;jettySize=auto;html=1;exitX=1;exitY=0.5;exitDx=0;exitDy=0;exitPerimeter=0;entryX=0.07;entryY=0.4;entryDx=0;entryDy=0;entryPerimeter=0;fontSize=18;endArrow=none;endFill=0;strokeWidth=2;" edge="1" parent="1" source="Ilc13FiyXrUuGdo4CWeQ-6" target="dReOzRF-Hoq0QVS8l2vs-32">
          <mxGeometry relative="1" as="geometry" />
        </mxCell>
        <mxCell id="Ilc13FiyXrUuGdo4CWeQ-6" value="&lt;span style=&quot;color: rgba(0 , 0 , 0 , 0) ; font-family: monospace ; font-size: 0px&quot;&gt;%3CmxGraphModel%3E%3Croot%3E%3CmxCell%20id%3D%220%22%2F%3E%3CmxCell%20id%3D%221%22%20parent%3D%220%22%2F%3E%3CmxCell%20id%3D%222%22%20value%3D%22PoE%20Switch%22%20style%3D%22text%3Bhtml%3D1%3BstrokeColor%3Dnone%3BfillColor%3Dnone%3Balign%3Dcenter%3BverticalAlign%3Dmiddle%3BwhiteSpace%3Dwrap%3Brounded%3D0%3B%22%20vertex%3D%221%22%20parent%3D%221%22%3E%3CmxGeometry%20x%3D%22319%22%20y%3D%22192%22%20width%3D%2270%22%20height%3D%2220%22%20as%3D%22geometry%22%2F%3E%3C%2FmxCell%3E%3C%2Froot%3E%3C%2FmxGraphModel%3E&lt;/span&gt;" style="fontColor=#0066CC;verticalAlign=top;verticalLabelPosition=bottom;labelPosition=center;align=center;html=1;outlineConnect=0;fillColor=#CCCCCC;strokeColor=#6881B3;gradientColor=none;gradientDirection=north;strokeWidth=2;shape=mxgraph.networks.router;" parent="1" vertex="1">
          <mxGeometry x="290" y="-1020" width="100" height="30" as="geometry" />
        </mxCell>
        <mxCell id="Ilc13FiyXrUuGdo4CWeQ-18" style="edgeStyle=orthogonalEdgeStyle;rounded=0;orthogonalLoop=1;jettySize=auto;html=1;exitX=0;exitY=0.5;exitDx=0;exitDy=0;exitPerimeter=0;entryX=0.5;entryY=0;entryDx=0;entryDy=0;entryPerimeter=0;endArrow=none;endFill=0;strokeWidth=2;" parent="1" source="Ilc13FiyXrUuGdo4CWeQ-25" target="Ilc13FiyXrUuGdo4CWeQ-8" edge="1">
          <mxGeometry relative="1" as="geometry" />
        </mxCell>
        <mxCell id="Ilc13FiyXrUuGdo4CWeQ-26" style="edgeStyle=orthogonalEdgeStyle;rounded=0;orthogonalLoop=1;jettySize=auto;html=1;exitX=0.5;exitY=0;exitDx=0;exitDy=0;exitPerimeter=0;endArrow=none;endFill=0;strokeWidth=2;" parent="1" source="Ilc13FiyXrUuGdo4CWeQ-7" target="Ilc13FiyXrUuGdo4CWeQ-25" edge="1">
          <mxGeometry relative="1" as="geometry" />
        </mxCell>
        <mxCell id="Ilc13FiyXrUuGdo4CWeQ-7" value="" style="fontColor=#0066CC;verticalAlign=top;verticalLabelPosition=bottom;labelPosition=center;align=center;html=1;outlineConnect=0;fillColor=#CCCCCC;strokeColor=#6881B3;gradientColor=none;gradientDirection=north;strokeWidth=2;shape=mxgraph.networks.switch;" parent="1" vertex="1">
          <mxGeometry x="210" y="-840" width="100" height="30" as="geometry" />
        </mxCell>
        <mxCell id="Ilc13FiyXrUuGdo4CWeQ-8" value="" style="fontColor=#0066CC;verticalAlign=top;verticalLabelPosition=bottom;labelPosition=center;align=center;html=1;outlineConnect=0;fillColor=#CCCCCC;strokeColor=#6881B3;gradientColor=none;gradientDirection=north;strokeWidth=2;shape=mxgraph.networks.switch;" parent="1" vertex="1">
          <mxGeometry x="210" y="-663" width="100" height="30" as="geometry" />
        </mxCell>
        <mxCell id="Ilc13FiyXrUuGdo4CWeQ-36" style="edgeStyle=orthogonalEdgeStyle;rounded=0;orthogonalLoop=1;jettySize=auto;html=1;exitX=0;exitY=0.5;exitDx=0;exitDy=0;exitPerimeter=0;entryX=0.95;entryY=0.05;entryDx=0;entryDy=0;entryPerimeter=0;endArrow=none;endFill=0;strokeWidth=2;" parent="1" source="Ilc13FiyXrUuGdo4CWeQ-9" target="Ilc13FiyXrUuGdo4CWeQ-34" edge="1">
          <mxGeometry relative="1" as="geometry" />
        </mxCell>
        <mxCell id="Ilc13FiyXrUuGdo4CWeQ-9" value="" style="fontColor=#0066CC;verticalAlign=top;verticalLabelPosition=bottom;labelPosition=center;align=center;html=1;outlineConnect=0;fillColor=#CCCCCC;strokeColor=#6881B3;gradientColor=none;gradientDirection=north;strokeWidth=2;shape=mxgraph.networks.security_camera;" parent="1" vertex="1">
          <mxGeometry x="911.01" y="-487" width="40" height="27" as="geometry" />
        </mxCell>
        <mxCell id="Ilc13FiyXrUuGdo4CWeQ-24" style="edgeStyle=orthogonalEdgeStyle;rounded=0;orthogonalLoop=1;jettySize=auto;html=1;exitX=0;exitY=0.5;exitDx=0;exitDy=0;exitPerimeter=0;entryX=1;entryY=0.5;entryDx=0;entryDy=0;entryPerimeter=0;endArrow=none;endFill=0;strokeWidth=2;" parent="1" source="Ilc13FiyXrUuGdo4CWeQ-10" target="Ilc13FiyXrUuGdo4CWeQ-8" edge="1">
          <mxGeometry relative="1" as="geometry" />
        </mxCell>
        <mxCell id="Ilc13FiyXrUuGdo4CWeQ-10" value="" style="fontColor=#0066CC;verticalAlign=top;verticalLabelPosition=bottom;labelPosition=center;align=center;html=1;outlineConnect=0;fillColor=#CCCCCC;strokeColor=#6881B3;gradientColor=none;gradientDirection=north;strokeWidth=2;shape=mxgraph.networks.nas_filer;" parent="1" vertex="1">
          <mxGeometry x="550" y="-667.75" width="130" height="39.5" as="geometry" />
        </mxCell>
        <mxCell id="Ilc13FiyXrUuGdo4CWeQ-37" style="edgeStyle=orthogonalEdgeStyle;rounded=0;orthogonalLoop=1;jettySize=auto;html=1;exitX=0;exitY=1;exitDx=0;exitDy=0;exitPerimeter=0;entryX=0.9;entryY=1;entryDx=0;entryDy=0;entryPerimeter=0;endArrow=none;endFill=0;strokeWidth=2;" parent="1" source="Ilc13FiyXrUuGdo4CWeQ-19" target="Ilc13FiyXrUuGdo4CWeQ-34" edge="1">
          <mxGeometry relative="1" as="geometry" />
        </mxCell>
        <mxCell id="Ilc13FiyXrUuGdo4CWeQ-19" value="" style="fontColor=#0066CC;verticalAlign=top;verticalLabelPosition=bottom;labelPosition=center;align=center;html=1;outlineConnect=0;fillColor=#CCCCCC;strokeColor=#6881B3;gradientColor=none;gradientDirection=north;strokeWidth=2;shape=mxgraph.networks.security_camera;" parent="1" vertex="1">
          <mxGeometry x="911.01" y="-447" width="40" height="27" as="geometry" />
        </mxCell>
        <mxCell id="Ilc13FiyXrUuGdo4CWeQ-20" value="" style="fontColor=#0066CC;verticalAlign=top;verticalLabelPosition=bottom;labelPosition=center;align=center;html=1;outlineConnect=0;fillColor=#CCCCCC;strokeColor=#6881B3;gradientColor=none;gradientDirection=north;strokeWidth=2;shape=mxgraph.networks.security_camera;" parent="1" vertex="1">
          <mxGeometry x="917" y="-849" width="40" height="27" as="geometry" />
        </mxCell>
        <mxCell id="Ilc13FiyXrUuGdo4CWeQ-30" style="edgeStyle=orthogonalEdgeStyle;rounded=0;orthogonalLoop=1;jettySize=auto;html=1;exitX=0;exitY=1;exitDx=0;exitDy=0;exitPerimeter=0;entryX=0.5;entryY=0;entryDx=0;entryDy=0;entryPerimeter=0;endArrow=none;endFill=0;strokeWidth=2;" parent="1" source="Ilc13FiyXrUuGdo4CWeQ-21" target="Ilc13FiyXrUuGdo4CWeQ-28" edge="1">
          <mxGeometry relative="1" as="geometry" />
        </mxCell>
        <mxCell id="Ilc13FiyXrUuGdo4CWeQ-21" value="" style="fontColor=#0066CC;verticalAlign=top;verticalLabelPosition=bottom;labelPosition=center;align=center;html=1;outlineConnect=0;fillColor=#CCCCCC;strokeColor=#6881B3;gradientColor=none;gradientDirection=north;strokeWidth=2;shape=mxgraph.networks.security_camera;" parent="1" vertex="1">
          <mxGeometry x="920" y="-910" width="40" height="30" as="geometry" />
        </mxCell>
        <mxCell id="Ilc13FiyXrUuGdo4CWeQ-27" style="edgeStyle=orthogonalEdgeStyle;rounded=0;orthogonalLoop=1;jettySize=auto;html=1;exitX=1;exitY=0.15;exitDx=0;exitDy=0;exitPerimeter=0;entryX=0;entryY=0.5;entryDx=0;entryDy=0;entryPerimeter=0;endArrow=none;endFill=0;strokeWidth=2;" parent="1" source="Ilc13FiyXrUuGdo4CWeQ-25" target="Ilc13FiyXrUuGdo4CWeQ-6" edge="1">
          <mxGeometry relative="1" as="geometry" />
        </mxCell>
        <mxCell id="Ilc13FiyXrUuGdo4CWeQ-25" value="" style="fontColor=#0066CC;verticalAlign=top;verticalLabelPosition=bottom;labelPosition=center;align=center;html=1;outlineConnect=0;fillColor=#CCCCCC;strokeColor=#6881B3;gradientColor=none;gradientDirection=north;strokeWidth=2;shape=mxgraph.networks.server;" parent="1" vertex="1">
          <mxGeometry x="80" y="-1020" width="90" height="100" as="geometry" />
        </mxCell>
        <mxCell id="Ilc13FiyXrUuGdo4CWeQ-29" style="edgeStyle=orthogonalEdgeStyle;rounded=0;orthogonalLoop=1;jettySize=auto;html=1;exitX=0;exitY=0.5;exitDx=0;exitDy=0;exitPerimeter=0;entryX=1;entryY=0.5;entryDx=0;entryDy=0;entryPerimeter=0;endArrow=none;endFill=0;strokeWidth=2;" parent="1" source="Ilc13FiyXrUuGdo4CWeQ-28" target="Ilc13FiyXrUuGdo4CWeQ-7" edge="1">
          <mxGeometry relative="1" as="geometry">
            <mxPoint x="400" y="-825" as="targetPoint" />
          </mxGeometry>
        </mxCell>
        <mxCell id="Ilc13FiyXrUuGdo4CWeQ-31" style="edgeStyle=orthogonalEdgeStyle;rounded=0;orthogonalLoop=1;jettySize=auto;html=1;exitX=0.9;exitY=1;exitDx=0;exitDy=0;exitPerimeter=0;entryX=0;entryY=1;entryDx=0;entryDy=0;entryPerimeter=0;endArrow=none;endFill=0;strokeWidth=2;" parent="1" source="Ilc13FiyXrUuGdo4CWeQ-28" target="Ilc13FiyXrUuGdo4CWeQ-20" edge="1">
          <mxGeometry relative="1" as="geometry" />
        </mxCell>
        <mxCell id="Ilc13FiyXrUuGdo4CWeQ-28" value="" style="fontColor=#0066CC;verticalAlign=top;verticalLabelPosition=bottom;labelPosition=center;align=center;html=1;outlineConnect=0;fillColor=#CCCCCC;strokeColor=#6881B3;gradientColor=none;gradientDirection=north;strokeWidth=2;shape=mxgraph.networks.switch;" parent="1" vertex="1">
          <mxGeometry x="530" y="-840" width="100" height="30" as="geometry" />
        </mxCell>
        <mxCell id="Ilc13FiyXrUuGdo4CWeQ-52" style="edgeStyle=orthogonalEdgeStyle;rounded=0;orthogonalLoop=1;jettySize=auto;html=1;exitX=0;exitY=0.5;exitDx=0;exitDy=0;exitPerimeter=0;entryX=0.5;entryY=1;entryDx=0;entryDy=0;entryPerimeter=0;endArrow=none;endFill=0;strokeWidth=2;" parent="1" source="Ilc13FiyXrUuGdo4CWeQ-34" target="Ilc13FiyXrUuGdo4CWeQ-8" edge="1">
          <mxGeometry relative="1" as="geometry" />
        </mxCell>
        <mxCell id="Ilc13FiyXrUuGdo4CWeQ-34" value="" style="fontColor=#0066CC;verticalAlign=top;verticalLabelPosition=bottom;labelPosition=center;align=center;html=1;outlineConnect=0;fillColor=#CCCCCC;strokeColor=#6881B3;gradientColor=none;gradientDirection=north;strokeWidth=2;shape=mxgraph.networks.switch;" parent="1" vertex="1">
          <mxGeometry x="680" y="-463" width="100" height="30" as="geometry" />
        </mxCell>
        <mxCell id="Ilc13FiyXrUuGdo4CWeQ-38" value="NVR" style="text;html=1;strokeColor=none;fillColor=none;align=center;verticalAlign=middle;whiteSpace=wrap;rounded=0;" parent="1" vertex="1">
          <mxGeometry x="570" y="-671.75" width="90" height="24" as="geometry" />
        </mxCell>
        <mxCell id="Ilc13FiyXrUuGdo4CWeQ-39" value="Switch 2" style="text;html=1;strokeColor=none;fillColor=none;align=center;verticalAlign=middle;whiteSpace=wrap;rounded=0;" parent="1" vertex="1">
          <mxGeometry x="233" y="-660" width="54" height="20" as="geometry" />
        </mxCell>
        <mxCell id="Ilc13FiyXrUuGdo4CWeQ-40" value="Switch 1" style="text;html=1;strokeColor=none;fillColor=none;align=center;verticalAlign=middle;whiteSpace=wrap;rounded=0;" parent="1" vertex="1">
          <mxGeometry x="230" y="-838" width="54" height="20" as="geometry" />
        </mxCell>
        <mxCell id="Ilc13FiyXrUuGdo4CWeQ-41" value="PoE Switch" style="text;html=1;strokeColor=none;fillColor=none;align=center;verticalAlign=middle;whiteSpace=wrap;rounded=0;" parent="1" vertex="1">
          <mxGeometry x="544" y="-832" width="70" height="10" as="geometry" />
        </mxCell>
        <mxCell id="Ilc13FiyXrUuGdo4CWeQ-42" value="PoE Switch" style="text;html=1;strokeColor=none;fillColor=none;align=center;verticalAlign=middle;whiteSpace=wrap;rounded=0;" parent="1" vertex="1">
          <mxGeometry x="690" y="-461" width="70" height="20" as="geometry" />
        </mxCell>
        <mxCell id="Ilc13FiyXrUuGdo4CWeQ-43" value="ISP Router" style="text;html=1;strokeColor=none;fillColor=none;align=center;verticalAlign=middle;whiteSpace=wrap;rounded=0;" parent="1" vertex="1">
          <mxGeometry x="300" y="-1017" width="70" height="20" as="geometry" />
        </mxCell>
        <mxCell id="Ilc13FiyXrUuGdo4CWeQ-46" value="Firewall" style="text;html=1;strokeColor=none;fillColor=none;align=center;verticalAlign=middle;whiteSpace=wrap;rounded=0;" parent="1" vertex="1">
          <mxGeometry x="100" y="-990" width="40" height="20" as="geometry" />
        </mxCell>
        <mxCell id="Ilc13FiyXrUuGdo4CWeQ-56" style="edgeStyle=orthogonalEdgeStyle;rounded=0;orthogonalLoop=1;jettySize=auto;html=1;exitX=0.5;exitY=1;exitDx=0;exitDy=0;exitPerimeter=0;entryX=0.95;entryY=0.05;entryDx=0;entryDy=0;entryPerimeter=0;endArrow=none;endFill=0;strokeWidth=2;" parent="1" source="Ilc13FiyXrUuGdo4CWeQ-48" target="Ilc13FiyXrUuGdo4CWeQ-7" edge="1">
          <mxGeometry relative="1" as="geometry" />
        </mxCell>
        <mxCell id="Ilc13FiyXrUuGdo4CWeQ-48" value="" style="fontColor=#0066CC;verticalAlign=top;verticalLabelPosition=bottom;labelPosition=center;align=center;html=1;outlineConnect=0;fillColor=#CCCCCC;strokeColor=#6881B3;gradientColor=none;gradientDirection=north;strokeWidth=2;shape=mxgraph.networks.wireless_hub;" parent="1" vertex="1">
          <mxGeometry x="284" y="-965" width="100" height="85" as="geometry" />
        </mxCell>
        <mxCell id="dReOzRF-Hoq0QVS8l2vs-1" value="Cam 1" style="text;html=1;strokeColor=none;fillColor=none;align=center;verticalAlign=middle;whiteSpace=wrap;rounded=0;" vertex="1" parent="1">
          <mxGeometry x="929" y="-926" width="41" height="16" as="geometry" />
        </mxCell>
        <mxCell id="dReOzRF-Hoq0QVS8l2vs-2" value="Cam 2" style="text;html=1;strokeColor=none;fillColor=none;align=center;verticalAlign=middle;whiteSpace=wrap;rounded=0;" vertex="1" parent="1">
          <mxGeometry x="927" y="-864" width="40" height="20" as="geometry" />
        </mxCell>
        <mxCell id="dReOzRF-Hoq0QVS8l2vs-3" value="Cam 3" style="text;html=1;strokeColor=none;fillColor=none;align=center;verticalAlign=middle;whiteSpace=wrap;rounded=0;" vertex="1" parent="1">
          <mxGeometry x="923.01" y="-501" width="40" height="20" as="geometry" />
        </mxCell>
        <mxCell id="dReOzRF-Hoq0QVS8l2vs-4" value="Cam 4" style="text;html=1;strokeColor=none;fillColor=none;align=center;verticalAlign=middle;whiteSpace=wrap;rounded=0;" vertex="1" parent="1">
          <mxGeometry x="923.01" y="-460" width="40" height="20" as="geometry" />
        </mxCell>
        <mxCell id="dReOzRF-Hoq0QVS8l2vs-15" value="" style="shape=ext;double=1;rounded=0;whiteSpace=wrap;html=1;fillColor=#F8CECC;" vertex="1" parent="1">
          <mxGeometry x="857" y="-760.75" width="133" height="250.75" as="geometry" />
        </mxCell>
        <mxCell id="dReOzRF-Hoq0QVS8l2vs-10" value="" style="fontColor=#0066CC;verticalAlign=top;verticalLabelPosition=bottom;labelPosition=center;align=center;html=1;outlineConnect=0;fillColor=#CCCCCC;strokeColor=#6881B3;gradientColor=none;gradientDirection=north;strokeWidth=2;shape=mxgraph.networks.security_camera;" vertex="1" parent="1">
          <mxGeometry x="920" y="-549" width="40" height="30" as="geometry" />
        </mxCell>
        <mxCell id="dReOzRF-Hoq0QVS8l2vs-11" value="WiFi Cam 1 - N" style="text;html=1;strokeColor=none;fillColor=none;align=center;verticalAlign=middle;whiteSpace=wrap;rounded=0;" vertex="1" parent="1">
          <mxGeometry x="892" y="-570" width="100" height="25.5" as="geometry" />
        </mxCell>
        <mxCell id="dReOzRF-Hoq0QVS8l2vs-17" style="edgeStyle=orthogonalEdgeStyle;rounded=0;orthogonalLoop=1;jettySize=auto;html=1;exitX=0;exitY=1;exitDx=0;exitDy=0;exitPerimeter=0;entryX=0.5;entryY=0;entryDx=0;entryDy=0;endArrow=none;endFill=0;strokeWidth=2;" edge="1" parent="1" source="dReOzRF-Hoq0QVS8l2vs-12" target="Ilc13FiyXrUuGdo4CWeQ-42">
          <mxGeometry relative="1" as="geometry" />
        </mxCell>
        <mxCell id="dReOzRF-Hoq0QVS8l2vs-12" value="" style="fontColor=#0066CC;verticalAlign=top;verticalLabelPosition=bottom;labelPosition=center;align=center;html=1;outlineConnect=0;fillColor=#CCCCCC;strokeColor=#6881B3;gradientColor=none;gradientDirection=north;strokeWidth=2;shape=mxgraph.networks.security_camera;" vertex="1" parent="1">
          <mxGeometry x="895.75" y="-635.25" width="40" height="30" as="geometry" />
        </mxCell>
        <mxCell id="dReOzRF-Hoq0QVS8l2vs-13" value="Cam N" style="text;html=1;strokeColor=none;fillColor=none;align=center;verticalAlign=middle;whiteSpace=wrap;rounded=0;" vertex="1" parent="1">
          <mxGeometry x="900" y="-650.98" width="53.38" height="18.98" as="geometry" />
        </mxCell>
        <mxCell id="dReOzRF-Hoq0QVS8l2vs-16" style="edgeStyle=orthogonalEdgeStyle;rounded=0;orthogonalLoop=1;jettySize=auto;html=1;exitX=0;exitY=1;exitDx=0;exitDy=0;exitPerimeter=0;endArrow=none;endFill=0;strokeWidth=2;" edge="1" parent="1" source="dReOzRF-Hoq0QVS8l2vs-5">
          <mxGeometry relative="1" as="geometry">
            <mxPoint x="579" y="-810" as="targetPoint" />
          </mxGeometry>
        </mxCell>
        <mxCell id="dReOzRF-Hoq0QVS8l2vs-5" value="" style="fontColor=#0066CC;verticalAlign=top;verticalLabelPosition=bottom;labelPosition=center;align=center;html=1;outlineConnect=0;fillColor=#CCCCCC;strokeColor=#6881B3;gradientColor=none;gradientDirection=north;strokeWidth=2;shape=mxgraph.networks.security_camera;" vertex="1" parent="1">
          <mxGeometry x="895.75" y="-735" width="40" height="30" as="geometry" />
        </mxCell>
        <mxCell id="dReOzRF-Hoq0QVS8l2vs-6" value="Cam 5" style="text;html=1;strokeColor=none;fillColor=none;align=center;verticalAlign=middle;whiteSpace=wrap;rounded=0;" vertex="1" parent="1">
          <mxGeometry x="900.75" y="-750" width="56.25" height="20" as="geometry" />
        </mxCell>
        <mxCell id="dReOzRF-Hoq0QVS8l2vs-20" value="" style="shape=waypoint;sketch=0;size=6;pointerEvents=1;points=[];fillColor=none;resizable=0;rotatable=0;perimeter=centerPerimeter;snapToPoint=1;fontSize=20;" vertex="1" parent="1">
          <mxGeometry x="895.75" y="-697.25" width="40" height="40" as="geometry" />
        </mxCell>
        <mxCell id="dReOzRF-Hoq0QVS8l2vs-21" value="" style="shape=waypoint;sketch=0;size=6;pointerEvents=1;points=[];fillColor=none;resizable=0;rotatable=0;perimeter=centerPerimeter;snapToPoint=1;fontSize=20;" vertex="1" parent="1">
          <mxGeometry x="895.75" y="-711.75" width="40" height="40" as="geometry" />
        </mxCell>
        <mxCell id="dReOzRF-Hoq0QVS8l2vs-22" value="" style="shape=waypoint;sketch=0;size=6;pointerEvents=1;points=[];fillColor=none;resizable=0;rotatable=0;perimeter=centerPerimeter;snapToPoint=1;fontSize=20;" vertex="1" parent="1">
          <mxGeometry x="895.75" y="-682" width="40" height="40" as="geometry" />
        </mxCell>
        <mxCell id="dReOzRF-Hoq0QVS8l2vs-25" value="" style="shape=ext;double=1;rounded=0;whiteSpace=wrap;html=1;fontSize=20;fillColor=#d5e8d4;strokeColor=#82b366;" vertex="1" parent="1">
          <mxGeometry x="50" y="-257" width="30" height="30" as="geometry" />
        </mxCell>
        <mxCell id="dReOzRF-Hoq0QVS8l2vs-26" value="" style="shape=ext;double=1;rounded=0;whiteSpace=wrap;html=1;fontSize=20;fillColor=#fff2cc;strokeColor=#d6b656;" vertex="1" parent="1">
          <mxGeometry x="50" y="-207" width="30" height="30" as="geometry" />
        </mxCell>
        <mxCell id="dReOzRF-Hoq0QVS8l2vs-27" value="" style="shape=ext;double=1;rounded=0;whiteSpace=wrap;html=1;fontSize=20;fillColor=#f8cecc;strokeColor=#b85450;" vertex="1" parent="1">
          <mxGeometry x="50" y="-157" width="30" height="30" as="geometry" />
        </mxCell>
        <mxCell id="dReOzRF-Hoq0QVS8l2vs-28" value="Aktualní zapojení" style="text;strokeColor=none;fillColor=none;html=1;fontSize=18;fontStyle=0;verticalAlign=middle;align=center;" vertex="1" parent="1">
          <mxGeometry x="50" y="-262" width="220" height="40" as="geometry" />
        </mxCell>
        <mxCell id="dReOzRF-Hoq0QVS8l2vs-29" value="Plánované rozšíření 1" style="text;strokeColor=none;fillColor=none;html=1;fontSize=18;fontStyle=0;verticalAlign=middle;align=center;" vertex="1" parent="1">
          <mxGeometry x="60" y="-212" width="230" height="40" as="geometry" />
        </mxCell>
        <mxCell id="dReOzRF-Hoq0QVS8l2vs-30" value="Plánované rozšíření 2" style="text;strokeColor=none;fillColor=none;html=1;fontSize=18;fontStyle=0;verticalAlign=middle;align=center;" vertex="1" parent="1">
          <mxGeometry x="60" y="-162" width="230" height="40" as="geometry" />
        </mxCell>
        <mxCell id="dReOzRF-Hoq0QVS8l2vs-31" value="Internet" style="text;html=1;strokeColor=none;fillColor=none;align=center;verticalAlign=middle;whiteSpace=wrap;rounded=0;fontSize=15;" vertex="1" parent="1">
          <mxGeometry x="1165" y="-1050" width="40" height="20" as="geometry" />
        </mxCell>
        <mxCell id="dReOzRF-Hoq0QVS8l2vs-33" value="Požadavky" style="text;strokeColor=none;fillColor=none;html=1;fontSize=24;fontStyle=1;verticalAlign=middle;align=center;" vertex="1" parent="1">
          <mxGeometry x="590" y="-307" width="160" height="40" as="geometry" />
        </mxCell>
        <mxCell id="dReOzRF-Hoq0QVS8l2vs-34" value="Vysvětlivky" style="text;strokeColor=none;fillColor=none;html=1;fontSize=24;fontStyle=1;verticalAlign=middle;align=center;" vertex="1" parent="1">
          <mxGeometry x="40" y="-307" width="160" height="40" as="geometry" />
        </mxCell>
        <mxCell id="dReOzRF-Hoq0QVS8l2vs-35" value="&lt;ul&gt;&lt;li&gt;Napájení kamer pomocí aktivního PoE&lt;/li&gt;&lt;li&gt;Vzdálený přístup ke kamerám přes webový prohlížeč&lt;/li&gt;&lt;li&gt;Záznam na HDD při zaznamenání pohybu&lt;/li&gt;&lt;li&gt;NVR kompatibilní s kameramy různých výrobců (ONVIF?)&lt;/li&gt;&lt;li&gt;Možnost přidání dalších kamer (LAN, WiFi) pouhým připojením, viz rozšíření&lt;/li&gt;&lt;li&gt;...&amp;nbsp;&lt;/li&gt;&lt;/ul&gt;" style="text;strokeColor=none;fillColor=none;html=1;whiteSpace=wrap;verticalAlign=top;overflow=hidden;fontSize=18;" vertex="1" parent="1">
          <mxGeometry x="605.75" y="-292" width="620" height="200" as="geometry" />
        </mxCell>
        <mxCell id="dReOzRF-Hoq0QVS8l2vs-38" value="" style="shape=ext;double=1;rounded=0;whiteSpace=wrap;html=1;fontSize=20;fillColor=#f8cecc;strokeColor=#b85450;" vertex="1" parent="1">
          <mxGeometry x="722" y="-161" width="20" height="20" as="geometry" />
        </mxCell>
        <mxCell id="dReOzRF-Hoq0QVS8l2vs-39" value="Schéma zapojení IP kamerového systému do stávající počitačové sítě" style="text;strokeColor=none;fillColor=none;html=1;fontSize=24;fontStyle=1;verticalAlign=middle;align=center;" vertex="1" parent="1">
          <mxGeometry x="660" y="-1220" width="100" height="40" as="geometry" />
        </mxCell>
        <mxCell id="dReOzRF-Hoq0QVS8l2vs-40" value="" style="pointerEvents=1;shadow=0;dashed=0;html=1;strokeColor=none;fillColor=#505050;labelPosition=center;verticalLabelPosition=bottom;verticalAlign=top;outlineConnect=0;align=center;shape=mxgraph.office.devices.laptop;fontSize=18;" vertex="1" parent="1">
          <mxGeometry x="1132" y="-750" width="58" height="34" as="geometry" />
        </mxCell>
        <mxCell id="dReOzRF-Hoq0QVS8l2vs-41" value="" style="pointerEvents=1;shadow=0;dashed=0;html=1;strokeColor=none;fillColor=#505050;labelPosition=center;verticalLabelPosition=bottom;verticalAlign=top;outlineConnect=0;align=center;shape=mxgraph.office.devices.cell_phone_iphone_standalone;fontSize=18;" vertex="1" parent="1">
          <mxGeometry x="1257.5" y="-739.25" width="25" height="42" as="geometry" />
        </mxCell>
        <mxCell id="dReOzRF-Hoq0QVS8l2vs-42" value="" style="pointerEvents=1;shadow=0;dashed=0;html=1;strokeColor=none;fillColor=#434445;aspect=fixed;labelPosition=center;verticalLabelPosition=bottom;verticalAlign=top;align=center;outlineConnect=0;shape=mxgraph.vvd.web_browser;fontSize=18;" vertex="1" parent="1">
          <mxGeometry x="1180" y="-692.75" width="50" height="35.5" as="geometry" />
        </mxCell>
        <mxCell id="dReOzRF-Hoq0QVS8l2vs-52" style="edgeStyle=orthogonalEdgeStyle;rounded=0;orthogonalLoop=1;jettySize=auto;html=1;exitX=0.5;exitY=1;exitDx=0;exitDy=0;fontSize=18;endArrow=none;endFill=0;strokeWidth=2;" edge="1" parent="1" source="dReOzRF-Hoq0QVS8l2vs-38" target="dReOzRF-Hoq0QVS8l2vs-38">
          <mxGeometry relative="1" as="geometry" />
        </mxCell>
        <mxCell id="dReOzRF-Hoq0QVS8l2vs-53" value="" style="shape=image;verticalLabelPosition=bottom;verticalAlign=top;imageAspect=0;aspect=fixed;image=data:image/svg+xml,PHN2ZyB4bWxucz0iaHR0cDovL3d3dy53My5vcmcvMjAwMC9zdmciIHZlcnNpb249IjEiIHZpZXdCb3g9IjAgMCA0OCA0OCIgZW5hYmxlLWJhY2tncm91bmQ9Im5ldyAwIDAgNDggNDgiPiYjeGE7ICAgIDxwYXRoIGZpbGw9IiM3Q0IzNDIiIGQ9Ik0yNCw0QzEzLDQsNCwxMyw0LDI0czksMjAsMjAsMjBzMjAtOSwyMC0yMFMzNSw0LDI0LDR6Ii8+JiN4YTsgICAgPHBhdGggZmlsbD0iIzAyNzdCRCIgZD0iTTQ1LDI0YzAsMTEuNy05LjUsMjEtMjEsMjFTMywzNS43LDMsMjRTMTIuMywzLDI0LDNTNDUsMTIuMyw0NSwyNHogTTIzLjgsMzMuN2MwLTAuNC0wLjItMC42LTAuNi0wLjggYy0xLjMtMC40LTIuNS0wLjQtMy42LTEuNWMtMC4yLTAuNC0wLjItMC44LTAuNC0xLjNjLTAuNC0wLjQtMS41LTAuNi0yLjEtMC44Yy0wLjgsMC0xLjcsMC0yLjcsMGMtMC40LDAtMS4xLDAtMS41LDAgYy0wLjYtMC4yLTEuMS0xLjEtMS41LTEuN2MwLTAuMiwwLTAuNi0wLjQtMC42Yy0wLjQtMC4yLTAuOCwwLjItMS4zLDBjLTAuMi0wLjItMC4yLTAuNC0wLjItMC42YzAtMC42LDAuNC0xLjMsMC44LTEuNyBjMC42LTAuNCwxLjMsMC4yLDEuOSwwLjJjMC4yLDAsMC4yLDAsMC40LDAuMmMwLjYsMC4yLDAuOCwxLDAuOCwxLjdjMCwwLjIsMCwwLjQsMCwwLjRjMCwwLjIsMC4yLDAuMiwwLjQsMC4yIGMwLjItMS4xLDAuMi0yLjEsMC40LTMuMmMwLTEuMywxLjMtMi41LDIuMy0yLjljMC40LTAuMiwwLjYsMC4yLDEuMSwwYzEuMy0wLjQsNC40LTEuNywzLjgtMy40Yy0wLjQtMS41LTEuNy0yLjktMy40LTIuNyBjLTAuNCwwLjItMC42LDAuNC0xLDAuNmMtMC42LDAuNC0xLjksMS43LTIuNSwxLjdjLTEuMS0wLjItMS4xLTEuNy0wLjgtMi4zYzAuMi0wLjgsMi4xLTMuNiwzLjQtMy4xYzAuMiwwLjIsMC42LDAuNiwwLjgsMC44IGMwLjQsMC4yLDEuMSwwLjIsMS43LDAuMmMwLjIsMCwwLjQsMCwwLjYtMC4yYzAuMi0wLjIsMC4yLTAuMiwwLjItMC40YzAtMC42LTAuNi0xLjMtMS0xLjdjLTAuNC0wLjQtMS4xLTAuOC0xLjctMS4xIGMtMi4xLTAuNi01LjUsMC4yLTcuMSwxLjdzLTIuOSw0LTMuOCw2LjFjLTAuNCwxLjMtMC44LDIuOS0xLDQuNGMtMC4yLDEtMC40LDEuOSwwLjIsMi45YzAuNiwxLjMsMS45LDIuNSwzLjIsMy40IGMwLjgsMC42LDIuNSwwLjYsMy40LDEuN2MwLjYsMC44LDAuNCwxLjksMC40LDIuOWMwLDEuMywwLjgsMi4zLDEuMywzLjRjMC4yLDAuNiwwLjQsMS41LDAuNiwyLjFjMCwwLjIsMC4yLDEuNSwwLjIsMS43IGMxLjMsMC42LDIuMywxLjMsMy44LDEuN2MwLjIsMCwxLTEuMywxLTEuNWMwLjYtMC42LDEuMS0xLjUsMS43LTEuOWMwLjQtMC4yLDAuOC0wLjQsMS4zLTAuOGMwLjQtMC40LDAuNi0xLjMsMC44LTEuOSBDMjMuOCwzNS4xLDI0LDM0LjMsMjMuOCwzMy43eiBNMjQuMiwxNC4zYzAuMiwwLDAuNC0wLjIsMC44LTAuNGMwLjYtMC40LDEuMy0xLjEsMS45LTEuNWMwLjYtMC40LDEuMy0xLjEsMS43LTEuNSBjMC42LTAuNCwxLjEtMS4zLDEuMy0xLjljMC4yLTAuNCwwLjgtMS4zLDAuNi0xLjljLTAuMi0wLjQtMS4zLTAuNi0xLjctMC44Yy0xLjctMC40LTMuMS0wLjYtNC44LTAuNmMtMC42LDAtMS41LDAuMi0xLjcsMC44IGMtMC4yLDEuMSwwLjYsMC44LDEuNSwxLjFjMCwwLDAuMiwxLjcsMC4yLDEuOWMwLjIsMS0wLjQsMS43LTAuNCwyLjdjMCwwLjYsMCwxLjcsMC40LDIuMUwyNC4yLDE0LjN6IE00MS44LDI5IGMwLjItMC40LDAuMi0xLjEsMC40LTEuNWMwLjItMSwwLjItMi4xLDAuMi0zLjFjMC0yLjEtMC4yLTQuMi0wLjgtNi4xYy0wLjQtMC42LTAuNi0xLjMtMC44LTEuOWMtMC40LTEuMS0xLTIuMS0xLjktMi45IGMtMC44LTEuMS0xLjktNC0zLjgtMy4xYy0wLjYsMC4yLTEsMS0xLjUsMS41Yy0wLjQsMC42LTAuOCwxLjMtMS4zLDEuOWMtMC4yLDAuMi0wLjQsMC42LTAuMiwwLjhjMCwwLjIsMC4yLDAuMiwwLjQsMC4yIGMwLjQsMC4yLDAuNiwwLjIsMSwwLjRjMC4yLDAsMC40LDAuMiwwLjIsMC40YzAsMCwwLDAuMi0wLjIsMC4yYy0xLDEuMS0yLjEsMS45LTMuMSwyLjljLTAuMiwwLjItMC40LDAuNi0wLjQsMC44IGMwLDAuMiwwLjIsMC4yLDAuMiwwLjRjMCwwLjItMC4yLDAuMi0wLjQsMC40Yy0wLjQsMC4yLTAuOCwwLjQtMS4xLDAuNmMtMC4yLDAuNCwwLDEuMS0wLjIsMS41Yy0wLjIsMS4xLTAuOCwxLjktMS4zLDIuOSBjLTAuNCwwLjYtMC42LDEuMy0xLDEuOWMwLDAuOC0wLjIsMS41LDAuMiwyLjFjMSwxLjUsMi45LDAuNiw0LjQsMS4zYzAuNCwwLjIsMC44LDAuMiwxLjEsMC42YzAuNiwwLjYsMC42LDEuNywwLjgsMi4zIGMwLjIsMC44LDAuNCwxLjcsMC44LDIuNWMwLjIsMSwwLjYsMi4xLDAuOCwyLjljMS45LTEuNSwzLjYtMy4xLDQuOC01LjJDNDAuNiwzMi40LDQxLjIsMzAuNyw0MS44LDI5eiIvPiYjeGE7PC9zdmc+;fontSize=18;fillColor=#F8CECC;" vertex="1" parent="1">
          <mxGeometry x="1161" y="-1031" width="48" height="48" as="geometry" />
        </mxCell>
      </root>
    </mxGraphModel>
  </diagram>
</mxfile>
